<?xml version="1.0" standalone="no"?>
<!DOCTYPE svg PUBLIC "-//W3C//DTD SVG 20010904//EN"
 "http://www.w3.org/TR/2001/REC-SVG-20010904/DTD/svg10.dtd">
<svg version="1.0" xmlns="http://www.w3.org/2000/svg"
 width="160.000000pt" height="197.000000pt" viewBox="0 0 160.000000 197.000000"
 preserveAspectRatio="xMidYMid meet">

<g transform="translate(0.000000,197.000000) scale(0.100000,-0.100000)"
fill="#000000" stroke="none">
<path d="M710 1929 c-166 -32 -308 -184 -341 -363 -15 -78 -5 -134 47 -268 63
-165 270 -552 320 -599 33 -31 102 -33 133 -5 46 42 250 421 326 606 37 90 39
101 40 205 0 104 -2 114 -32 178 -88 185 -290 286 -493 246z m205 -203 c93
-44 148 -129 149 -230 0 -78 -17 -129 -62 -178 -103 -114 -273 -121 -381 -16
-167 164 -51 448 184 448 42 0 75 -7 110 -24z"/>
<path d="M732 1610 c-126 -77 -74 -262 75 -262 71 0 130 54 139 128 14 111
-117 193 -214 134z"/>
<path d="M225 1110 c-11 -4 -30 -19 -43 -32 -24 -26 -25 -35 -76 -353 -14 -88
-39 -244 -56 -347 -16 -104 -30 -204 -30 -223 0 -53 24 -90 73 -114 43 -21 53
-21 710 -21 446 0 675 4 694 11 42 15 82 58 89 94 3 18 -8 120 -26 231 -17
110 -38 240 -46 289 -46 296 -64 396 -74 415 -24 44 -68 60 -167 60 l-93 0
-25 -50 -25 -50 68 0 c71 0 102 -13 123 -51 13 -25 49 -231 42 -242 -13 -22
-232 25 -296 63 -43 27 -49 26 -74 -18 -19 -33 -19 -39 -6 -48 12 -7 -4 -31
-89 -128 -56 -66 -107 -121 -113 -122 -5 -2 -26 19 -47 45 -53 70 -109 94
-230 99 l-98 4 100 80 99 79 -21 34 c-11 19 -24 37 -28 40 -5 3 -77 -49 -159
-115 -153 -121 -186 -140 -176 -97 3 12 14 81 25 152 24 150 33 178 68 205 19
16 40 20 94 20 l68 0 -25 50 -25 50 -93 -1 c-50 0 -101 -4 -112 -9z m937 -461
c24 -6 83 -15 132 -18 l90 -6 16 -100 c10 -55 16 -101 15 -103 -1 -1 -122 -1
-270 0 l-267 3 107 123 c65 75 112 121 120 118 8 -3 33 -10 57 -17z m-531
-160 c29 -23 249 -344 249 -363 0 -4 -146 -5 -324 -4 l-324 3 -27 25 c-46 42
-48 62 -25 210 12 74 23 141 26 148 3 10 45 13 197 10 192 -3 194 -3 228 -29z
m804 -188 c13 -41 9 -99 -9 -125 -31 -48 -68 -56 -255 -56 l-169 0 -61 95
c-34 52 -61 97 -61 100 0 3 123 5 274 5 263 0 275 -1 281 -19z"/>
</g>
</svg>
